<?xml version="1.0" encoding="UTF-8"?>
<svg version="1.1" xmlns="http://www.w3.org/2000/svg" width="32" height="32">
<path d="M0 0 C3.81684226 1.55500981 6.19195732 4.03595495 9 7 C8.67 7.99 8.34 8.98 8 10 C6.68 9.34 5.36 8.68 4 8 C3.67 15.59 3.34 23.18 3 31 C1.68 31 0.36 31 -1 31 C-1.33 23.41 -1.66 15.82 -2 8 C-3.98 8.99 -3.98 8.99 -6 10 C-6 6 -6 6 -4.6875 4.296875 C-4.130625 3.78640625 -3.57375 3.2759375 -3 2.75 C-2.1646875 1.96882813 -2.1646875 1.96882813 -1.3125 1.171875 C-0.879375 0.78515625 -0.44625 0.3984375 0 0 Z " fill="#BBBBBB" transform="translate(23,0)"/>
<path d="M0 0 C0.99 0.33 1.98 0.66 3 1 C3.33 8.59 3.66 16.18 4 24 C5.32 23.34 6.64 22.68 8 22 C8 26 8 26 6.6875 27.703125 C6.130625 28.21359375 5.57375 28.7240625 5 29.25 C4.443125 29.77078125 3.88625 30.2915625 3.3125 30.828125 C2.6628125 31.40820312 2.6628125 31.40820312 2 32 C-1.81684226 30.44499019 -4.19195732 27.96404505 -7 25 C-6.505 23.515 -6.505 23.515 -6 22 C-4.68 22.66 -3.36 23.32 -2 24 C-1.97494385 23.30849854 -1.9498877 22.61699707 -1.92407227 21.90454102 C-1.80847839 18.79032134 -1.68558758 15.67643211 -1.5625 12.5625 C-1.52318359 11.47388672 -1.48386719 10.38527344 -1.44335938 9.26367188 C-1.40146484 8.22919922 -1.35957031 7.19472656 -1.31640625 6.12890625 C-1.27974854 5.17056885 -1.24309082 4.21223145 -1.20532227 3.22485352 C-1 1 -1 1 0 0 Z " fill="#BBBBBB" transform="translate(7,0)"/>
</svg>
