<svg width="20" height="18" viewBox="0 0 20 18" fill="none" xmlns="http://www.w3.org/2000/svg">
<path d="M1.76363 16.3409H3.49091M3.49091 16.3409H12.1273M3.49091 16.3409V4.42289C3.49091 3.45553 3.49091 2.97149 3.67917 2.602C3.84477 2.277 4.10881 2.01295 4.43382 1.84735C4.80331 1.65909 5.28735 1.65909 6.25471 1.65909H9.3638C10.3312 1.65909 10.8142 1.65909 11.1837 1.84735C11.5087 2.01295 11.7736 2.277 11.9392 2.602C12.1273 2.97113 12.1273 3.45458 12.1273 4.42006V9.43181M12.1273 16.3409H17.3091M12.1273 16.3409V9.43181M17.3091 16.3409H19.0364M17.3091 16.3409V9.43181C17.3091 8.62701 17.309 8.2248 17.1775 7.90738C17.0022 7.48415 16.6663 7.14769 16.243 6.97239C15.9256 6.84091 15.5228 6.84091 14.718 6.84091C13.9131 6.84091 13.5107 6.84091 13.1933 6.97239C12.7701 7.14769 12.4341 7.48415 12.2588 7.90738C12.1273 8.2248 12.1273 8.62701 12.1273 9.43181M6.08182 7.70454H9.53636M6.08182 5.11363H9.53636" stroke="#5A5A5A" stroke-width="1.6" stroke-linecap="round" stroke-linejoin="round"/>
</svg>
